<svg xmlns="http://www.w3.org/2000/svg" viewBox="0 0 64 64" id="iron"><path fill="#4D4D4D" d="M40 27h-4a1 1 0 0 1-1-1v-1a1 1 0 0 1 1-1h4a1 1 0 0 1 1 1v1a1 1 0 0 1-1 1z"></path><path fill="#B3B3B3" d="M6 46h48v4H6z"></path><path fill="#4D4D4D" d="M53.032 16h3.081c.524 0 .965.381 1.025.885l2.856 24c.07.594-.409 1.115-1.026 1.115h-3.081c-.524 0-.965-.381-1.025-.885l-2.856-24c-.07-.594.409-1.115 1.026-1.115z"></path><path fill="#CCC" d="M52.111 13H29l-.21.03A28.527 28.527 0 0 0 4.657 36.729l-1.47 9.112A1 1 0 0 0 4.174 47h51.701a1 1 0 0 0 .993-1.117l-3.765-32a.998.998 0 0 0-.992-.883zM48 22.04A3.96 3.96 0 0 1 44.04 26H31.96A3.96 3.96 0 0 1 28 22.04v-.08A3.96 3.96 0 0 1 31.96 18h12.08A3.96 3.96 0 0 1 48 21.96v.08z"></path><path fill="#4D4D4D" d="M3.484 44h53.163l-.235-2H3.806zM57 51H3a1 1 0 1 1 0-2h54a1 1 0 1 1 0 2z"></path><path fill="none" d="M31.96 26h12.08A3.96 3.96 0 0 0 48 22.04v-.08A3.96 3.96 0 0 0 44.04 18H31.96A3.96 3.96 0 0 0 28 21.96v.08A3.96 3.96 0 0 0 31.96 26z"></path><path fill="#3EBBDD" d="m28.219 31.435 26.675-2.338-1.79-15.214a1 1 0 0 0-.993-.883H29l-.21.03a28.487 28.487 0 0 0-10.704 3.814l-.156.316c-3.116 7.123 2.546 14.979 10.289 14.275zM28 21.96A3.96 3.96 0 0 1 31.96 18h12.08A3.96 3.96 0 0 1 48 21.96v.08A3.96 3.96 0 0 1 44.04 26H31.96A3.96 3.96 0 0 1 28 22.04v-.08z"></path><path fill="#4D4D4D" d="M49 40c-1.654 0-3-1.346-3-3s1.346-3 3-3 3 1.346 3 3-1.346 3-3 3zm0-4a1 1 0 1 0 0 2 1 1 0 0 0 0-2zM9 38h2v2H9zM13 38h2v2h-2z"></path></svg>