<svg xmlns="http://www.w3.org/2000/svg" xmlns:xlink="http://www.w3.org/1999/xlink" width="32" height="32" id="washing"><defs><linearGradient id="a"><stop offset="0" stop-color="#000092"></stop><stop offset="1" stop-color="#ff00f3"></stop></linearGradient><linearGradient id="b" x1="2" x2="30" y1="16" y2="16" gradientUnits="userSpaceOnUse" xlink:href="#a"></linearGradient></defs><path fill="none" d="M11.5.498v31h1.99a1.82 1.82 0 0 1 .04-.387 1.956 1.956 0 0 1 .113-.373 1.967 1.967 0 0 1 1.658-1.184h.14c.064 0 .13 0 .194.01.065.01.129.015.192.027a1.981 1.981 0 0 1 .549.201 1.93 1.93 0 0 1 .802.826 1.978 1.978 0 0 1 .184.552 1.963 1.963 0 0 1 .028.332H24c.832 0 1.5-.669 1.5-1.5v-28c0-.83-.668-1.5-1.5-1.5h-6.61a1.82 1.82 0 0 1-.04.387 1.956 1.956 0 0 1-.113.373 1.967 1.967 0 0 1-1.658 1.185h-.139c-.065 0-.13 0-.195-.01-.064-.01-.128-.016-.192-.029a1.772 1.772 0 0 1-.373-.113 1.92 1.92 0 0 1-.341-.187 1.937 1.937 0 0 1-.778-1.088 1.919 1.919 0 0 1-.07-.522z"></path><path fill="url(#b)" d="M5 0C3.347 0 2 1.347 2 3v26.5a.5.5 0 0 0 .5.5H6v1.5a.5.5 0 0 0 .5.5h3a.5.5 0 0 0 .5-.5V30h12v1.5a.5.5 0 0 0 .5.5h3a.5.5 0 0 0 .5-.5V30h3.5a.5.5 0 0 0 .5-.5V3c0-1.653-1.347-3-3-3H5zm0 1h22c1.117 0 2 .883 2 2v5H3V3c0-1.117.883-2 2-2zm.5 1a.5.5 0 0 0-.5.5v4a.5.5 0 0 0 .5.5h6a.5.5 0 0 0 .5-.5v-4a.5.5 0 0 0-.5-.5h-6zm8 0a.5.5 0 0 0-.5.5.5.5 0 0 0 .5.5.5.5 0 0 0 .5-.5.5.5 0 0 0-.5-.5zM17 2c-1.099 0-2 .901-2 2s.901 2 2 2 2-.901 2-2-.901-2-2-2zM6 3h5v3H6V3zm11 0c.558 0 1 .442 1 1s-.442 1-1 1-1-.442-1-1 .442-1 1-1zm-3.5 1a.5.5 0 0 0-.5.5.5.5 0 0 0 .5.5.5.5 0 0 0 .5-.5.5.5 0 0 0-.5-.5zm0 2a.5.5 0 0 0-.5.5.5.5 0 0 0 .5.5.5.5 0 0 0 .5-.5.5.5 0 0 0-.5-.5zM3 9h26v20H3V9zm13 1c-4.412 0-8 3.588-8 8s3.588 8 8 8 8-3.588 8-8-3.588-8-8-8zm0 1c3.872 0 7 3.128 7 7s-3.128 7-7 7a6.992 6.992 0 0 1-6.965-7.717A6.993 6.993 0 0 1 16 11zm4.492 3.994A.5.5 0 0 0 20 15.5v5a.5.5 0 1 0 1 0v-5a.5.5 0 0 0-.508-.506zM7 30h2v1H7v-1zm16 0h2v1h-2v-1z" color="#000" font-family="sans-serif" font-weight="400" overflow="visible" style="line-height:normal;text-indent:0;text-align:start;text-decoration-line:none;text-decoration-style:solid;text-decoration-color:#000;text-transform:none;block-progression:tb;isolation:auto;mix-blend-mode:normal"></path></svg>